<svg id="visual" viewBox="0 0 900 600" width="900" height="600" xmlns="http://www.w3.org/2000/svg" xmlns:xlink="http://www.w3.org/1999/xlink" version="1.1"><rect x="0" y="0" width="900" height="600" fill="#edf2f8"></rect><path d="M0 83L56 83L56 110L113 110L113 46L169 46L169 119L225 119L225 53L281 53L281 196L338 196L338 58L394 58L394 76L450 76L450 51L506 51L506 205L563 205L563 141L619 141L619 214L675 214L675 178L731 178L731 195L788 195L788 201L844 201L844 42L900 42L900 190L900 601L900 601L844 601L844 601L788 601L788 601L731 601L731 601L675 601L675 601L619 601L619 601L563 601L563 601L506 601L506 601L450 601L450 601L394 601L394 601L338 601L338 601L281 601L281 601L225 601L225 601L169 601L169 601L113 601L113 601L56 601L56 601L0 601Z" fill="#d9f99d"></path><path d="M0 139L56 139L56 160L113 160L113 269L169 269L169 180L225 180L225 222L281 222L281 129L338 129L338 236L394 236L394 207L450 207L450 190L506 190L506 163L563 163L563 141L619 141L619 128L675 128L675 162L731 162L731 275L788 275L788 224L844 224L844 239L900 239L900 234L900 601L900 601L844 601L844 601L788 601L788 601L731 601L731 601L675 601L675 601L619 601L619 601L563 601L563 601L506 601L506 601L450 601L450 601L394 601L394 601L338 601L338 601L281 601L281 601L225 601L225 601L169 601L169 601L113 601L113 601L56 601L56 601L0 601Z" fill="#eee68e"></path><path d="M0 214L56 214L56 319L113 319L113 254L169 254L169 336L225 336L225 339L281 339L281 353L338 353L338 211L394 211L394 240L450 240L450 229L506 229L506 294L563 294L563 280L619 280L619 263L675 263L675 339L731 339L731 244L788 244L788 250L844 250L844 218L900 218L900 336L900 601L900 601L844 601L844 601L788 601L788 601L731 601L731 601L675 601L675 601L619 601L619 601L563 601L563 601L506 601L506 601L450 601L450 601L394 601L394 601L338 601L338 601L281 601L281 601L225 601L225 601L169 601L169 601L113 601L113 601L56 601L56 601L0 601Z" fill="#fbd38a"></path><path d="M0 348L56 348L56 314L113 314L113 337L169 337L169 382L225 382L225 368L281 368L281 371L338 371L338 306L394 306L394 350L450 350L450 416L506 416L506 324L563 324L563 403L619 403L619 380L675 380L675 332L731 332L731 319L788 319L788 372L844 372L844 378L900 378L900 374L900 601L900 601L844 601L844 601L788 601L788 601L731 601L731 601L675 601L675 601L619 601L619 601L563 601L563 601L506 601L506 601L450 601L450 601L394 601L394 601L338 601L338 601L281 601L281 601L225 601L225 601L169 601L169 601L113 601L113 601L56 601L56 601L0 601Z" fill="#ffc18e"></path><path d="M0 438L56 438L56 395L113 395L113 473L169 473L169 498L225 498L225 417L281 417L281 466L338 466L338 404L394 404L394 371L450 371L450 478L506 478L506 436L563 436L563 470L619 470L619 462L675 462L675 439L731 439L731 469L788 469L788 398L844 398L844 447L900 447L900 445L900 601L900 601L844 601L844 601L788 601L788 601L731 601L731 601L675 601L675 601L619 601L619 601L563 601L563 601L506 601L506 601L450 601L450 601L394 601L394 601L338 601L338 601L281 601L281 601L225 601L225 601L169 601L169 601L113 601L113 601L56 601L56 601L0 601Z" fill="#ffb198"></path><path d="M0 571L56 571L56 472L113 472L113 483L169 483L169 557L225 557L225 547L281 547L281 502L338 502L338 504L394 504L394 482L450 482L450 561L506 561L506 484L563 484L563 495L619 495L619 500L675 500L675 573L731 573L731 571L788 571L788 460L844 460L844 520L900 520L900 463L900 601L900 601L844 601L844 601L788 601L788 601L731 601L731 601L675 601L675 601L619 601L619 601L563 601L563 601L506 601L506 601L450 601L450 601L394 601L394 601L338 601L338 601L281 601L281 601L225 601L225 601L169 601L169 601L113 601L113 601L56 601L56 601L0 601Z" fill="#fca5a5"></path></svg>