<svg id="visual" viewBox="0 0 540 960" width="540" height="960" xmlns="http://www.w3.org/2000/svg" xmlns:xlink="http://www.w3.org/1999/xlink" version="1.1"><g stroke-width="1" stroke-linejoin="bevel"><path d="M295 470L321 475L297 459Z" fill="#a76229" stroke="#a76229"></path><path d="M211 485L258 512L295 470Z" fill="#a76229" stroke="#a76229"></path><path d="M295 470L258 512L321 475Z" fill="#6d0451" stroke="#6d0451"></path><path d="M412 513L381 453L321 475Z" fill="#a6502d" stroke="#a6502d"></path><path d="M321 475L324 384L297 459Z" fill="#a23e33" stroke="#a23e33"></path><path d="M381 453L324 384L321 475Z" fill="#6d0451" stroke="#6d0451"></path><path d="M297 459L211 485L295 470Z" fill="#6d0451" stroke="#6d0451"></path><path d="M258 512L325 554L321 475Z" fill="#a76229" stroke="#a76229"></path><path d="M324 384L307 369L297 459Z" fill="#6d0451" stroke="#6d0451"></path><path d="M217 382L211 485L297 459Z" fill="#390e5a" stroke="#390e5a"></path><path d="M258 512L305 581L325 554Z" fill="#560757" stroke="#560757"></path><path d="M381 453L378 387L324 384Z" fill="#a6502d" stroke="#a6502d"></path><path d="M324 384L371 312L307 369Z" fill="#6d0451" stroke="#6d0451"></path><path d="M325 554L366 556L321 475Z" fill="#a6502d" stroke="#a6502d"></path><path d="M325 554L354 568L366 556Z" fill="#800b4a" stroke="#800b4a"></path><path d="M462 544L412 513L425 595Z" fill="#390e5a" stroke="#390e5a"></path><path d="M366 556L412 513L321 475Z" fill="#a6502d" stroke="#a6502d"></path><path d="M381 453L442 457L378 387Z" fill="#800b4a" stroke="#800b4a"></path><path d="M227 575L305 581L258 512Z" fill="#6d0451" stroke="#6d0451"></path><path d="M325 554L305 581L354 568Z" fill="#8f1b42" stroke="#8f1b42"></path><path d="M307 369L217 382L297 459Z" fill="#560757" stroke="#560757"></path><path d="M165 447L193 517L211 485Z" fill="#390e5a" stroke="#390e5a"></path><path d="M211 485L193 517L258 512Z" fill="#9a2c3a" stroke="#9a2c3a"></path><path d="M412 513L442 457L381 453Z" fill="#a76229" stroke="#a76229"></path><path d="M210 569L227 575L258 512Z" fill="#6d0451" stroke="#6d0451"></path><path d="M193 517L210 569L258 512Z" fill="#a6502d" stroke="#a6502d"></path><path d="M217 382L165 447L211 485Z" fill="#a23e33" stroke="#a23e33"></path><path d="M131 578L210 591L210 569Z" fill="#a76229" stroke="#a76229"></path><path d="M307 369L208 345L217 382Z" fill="#6d0451" stroke="#6d0451"></path><path d="M217 382L150 374L165 447Z" fill="#560757" stroke="#560757"></path><path d="M131 578L210 569L193 517Z" fill="#800b4a" stroke="#800b4a"></path><path d="M210 569L210 591L227 575Z" fill="#6d0451" stroke="#6d0451"></path><path d="M266 648L305 645L305 581Z" fill="#a67429" stroke="#a67429"></path><path d="M404 327L371 312L378 387Z" fill="#800b4a" stroke="#800b4a"></path><path d="M378 387L371 312L324 384Z" fill="#a76229" stroke="#a76229"></path><path d="M307 369L242 301L208 345Z" fill="#a67429" stroke="#a67429"></path><path d="M442 325L404 327L378 387Z" fill="#a67429" stroke="#a67429"></path><path d="M425 595L412 513L366 556Z" fill="#a76229" stroke="#a76229"></path><path d="M412 513L462 544L442 457Z" fill="#560757" stroke="#560757"></path><path d="M425 595L366 556L354 568Z" fill="#560757" stroke="#560757"></path><path d="M384 643L425 595L354 568Z" fill="#6d0451" stroke="#6d0451"></path><path d="M305 645L354 568L305 581Z" fill="#800b4a" stroke="#800b4a"></path><path d="M266 648L305 581L227 575Z" fill="#560757" stroke="#560757"></path><path d="M273 263L242 301L307 369Z" fill="#04135b" stroke="#04135b"></path><path d="M150 374L129 450L165 447Z" fill="#560757" stroke="#560757"></path><path d="M165 447L129 450L193 517Z" fill="#8f1b42" stroke="#8f1b42"></path><path d="M152 352L150 374L208 345Z" fill="#a67429" stroke="#a67429"></path><path d="M208 345L150 374L217 382Z" fill="#a23e33" stroke="#a23e33"></path><path d="M496 442L491 429L442 457Z" fill="#04135b" stroke="#04135b"></path><path d="M442 457L491 429L378 387Z" fill="#9a2c3a" stroke="#9a2c3a"></path><path d="M210 591L266 648L227 575Z" fill="#9a2c3a" stroke="#9a2c3a"></path><path d="M462 544L496 442L442 457Z" fill="#a76229" stroke="#a76229"></path><path d="M404 327L385 294L371 312Z" fill="#9a2c3a" stroke="#9a2c3a"></path><path d="M371 312L343 270L307 369Z" fill="#a76229" stroke="#a76229"></path><path d="M442 325L385 294L404 327Z" fill="#a76229" stroke="#a76229"></path><path d="M352 685L384 643L305 645Z" fill="#800b4a" stroke="#800b4a"></path><path d="M305 645L384 643L354 568Z" fill="#9a2c3a" stroke="#9a2c3a"></path><path d="M491 429L442 325L378 387Z" fill="#8f1b42" stroke="#8f1b42"></path><path d="M218 286L152 352L208 345Z" fill="#9a2c3a" stroke="#9a2c3a"></path><path d="M28 381L95 470L129 450Z" fill="#8f1b42" stroke="#8f1b42"></path><path d="M382 237L343 270L385 294Z" fill="#9a2c3a" stroke="#9a2c3a"></path><path d="M385 294L343 270L371 312Z" fill="#a6502d" stroke="#a6502d"></path><path d="M273 263L218 286L242 301Z" fill="#04135b" stroke="#04135b"></path><path d="M242 301L218 286L208 345Z" fill="#9a2c3a" stroke="#9a2c3a"></path><path d="M343 270L273 263L307 369Z" fill="#8f1b42" stroke="#8f1b42"></path><path d="M99 504L131 578L193 517Z" fill="#a6502d" stroke="#a6502d"></path><path d="M210 591L192 693L266 648Z" fill="#a6502d" stroke="#a6502d"></path><path d="M95 470L99 504L129 450Z" fill="#390e5a" stroke="#390e5a"></path><path d="M129 450L99 504L193 517Z" fill="#560757" stroke="#560757"></path><path d="M28 381L129 450L150 374Z" fill="#a76229" stroke="#a76229"></path><path d="M491 429L464 312L442 325Z" fill="#800b4a" stroke="#800b4a"></path><path d="M442 325L464 312L385 294Z" fill="#8f1b42" stroke="#8f1b42"></path><path d="M540 323L464 312L491 429Z" fill="#6d0451" stroke="#6d0451"></path><path d="M270 702L352 685L305 645Z" fill="#04135b" stroke="#04135b"></path><path d="M470 652L478 619L425 595Z" fill="#6d0451" stroke="#6d0451"></path><path d="M273 263L209 265L218 286Z" fill="#390e5a" stroke="#390e5a"></path><path d="M218 286L140 247L152 352Z" fill="#9a2c3a" stroke="#9a2c3a"></path><path d="M95 470L84 498L99 504Z" fill="#a6502d" stroke="#a6502d"></path><path d="M34 531L78 618L131 578Z" fill="#a23e33" stroke="#a23e33"></path><path d="M425 595L478 619L462 544Z" fill="#a23e33" stroke="#a23e33"></path><path d="M540 512L540 474L496 442Z" fill="#800b4a" stroke="#800b4a"></path><path d="M470 652L425 595L384 643Z" fill="#a76229" stroke="#a76229"></path><path d="M540 512L496 442L462 544Z" fill="#800b4a" stroke="#800b4a"></path><path d="M496 442L540 436L491 429Z" fill="#a67429" stroke="#a67429"></path><path d="M540 474L540 436L496 442Z" fill="#04135b" stroke="#04135b"></path><path d="M540 618L540 512L462 544Z" fill="#a6502d" stroke="#a6502d"></path><path d="M78 618L140 634L131 578Z" fill="#6d0451" stroke="#6d0451"></path><path d="M131 578L140 634L210 591Z" fill="#a67429" stroke="#a67429"></path><path d="M266 648L270 702L305 645Z" fill="#8f1b42" stroke="#8f1b42"></path><path d="M192 693L270 702L266 648Z" fill="#a67429" stroke="#a67429"></path><path d="M456 227L382 237L385 294Z" fill="#04135b" stroke="#04135b"></path><path d="M343 270L306 217L273 263Z" fill="#a23e33" stroke="#a23e33"></path><path d="M273 263L201 207L209 265Z" fill="#6d0451" stroke="#6d0451"></path><path d="M429 699L470 652L384 643Z" fill="#04135b" stroke="#04135b"></path><path d="M478 619L540 618L462 544Z" fill="#9a2c3a" stroke="#9a2c3a"></path><path d="M140 247L103 332L152 352Z" fill="#a76229" stroke="#a76229"></path><path d="M152 352L103 332L150 374Z" fill="#8f1b42" stroke="#8f1b42"></path><path d="M0 445L34 531L84 498Z" fill="#a67429" stroke="#a67429"></path><path d="M382 237L306 217L343 270Z" fill="#8f1b42" stroke="#8f1b42"></path><path d="M140 634L192 693L210 591Z" fill="#04135b" stroke="#04135b"></path><path d="M380 740L429 699L352 685Z" fill="#390e5a" stroke="#390e5a"></path><path d="M352 685L429 699L384 643Z" fill="#390e5a" stroke="#390e5a"></path><path d="M192 693L256 728L270 702Z" fill="#a23e33" stroke="#a23e33"></path><path d="M325 749L380 740L352 685Z" fill="#9a2c3a" stroke="#9a2c3a"></path><path d="M540 436L540 323L491 429Z" fill="#9a2c3a" stroke="#9a2c3a"></path><path d="M464 312L456 227L385 294Z" fill="#8f1b42" stroke="#8f1b42"></path><path d="M540 638L478 619L470 652Z" fill="#390e5a" stroke="#390e5a"></path><path d="M540 638L540 618L478 619Z" fill="#8f1b42" stroke="#8f1b42"></path><path d="M34 531L131 578L99 504Z" fill="#a6502d" stroke="#a6502d"></path><path d="M140 634L134 719L192 693Z" fill="#a76229" stroke="#a76229"></path><path d="M209 265L140 247L218 286Z" fill="#6d0451" stroke="#6d0451"></path><path d="M201 207L140 247L209 265Z" fill="#390e5a" stroke="#390e5a"></path><path d="M540 323L540 312L464 312Z" fill="#9a2c3a" stroke="#9a2c3a"></path><path d="M540 264L456 227L464 312Z" fill="#560757" stroke="#560757"></path><path d="M356 159L269 166L306 217Z" fill="#a76229" stroke="#a76229"></path><path d="M269 166L273 263L306 217Z" fill="#390e5a" stroke="#390e5a"></path><path d="M269 166L201 207L273 263Z" fill="#6d0451" stroke="#6d0451"></path><path d="M325 749L352 685L270 702Z" fill="#560757" stroke="#560757"></path><path d="M540 711L540 638L470 652Z" fill="#9a2c3a" stroke="#9a2c3a"></path><path d="M0 445L84 498L95 470Z" fill="#a23e33" stroke="#a23e33"></path><path d="M84 498L34 531L99 504Z" fill="#a67429" stroke="#a67429"></path><path d="M256 728L325 749L270 702Z" fill="#a23e33" stroke="#a23e33"></path><path d="M450 743L470 652L429 699Z" fill="#9a2c3a" stroke="#9a2c3a"></path><path d="M27 333L28 381L103 332Z" fill="#a23e33" stroke="#a23e33"></path><path d="M103 332L28 381L150 374Z" fill="#6d0451" stroke="#6d0451"></path><path d="M356 159L306 217L382 237Z" fill="#a23e33" stroke="#a23e33"></path><path d="M192 693L165 752L256 728Z" fill="#a6502d" stroke="#a6502d"></path><path d="M265 800L369 773L325 749Z" fill="#04135b" stroke="#04135b"></path><path d="M91 693L134 719L140 634Z" fill="#390e5a" stroke="#390e5a"></path><path d="M540 312L540 264L464 312Z" fill="#390e5a" stroke="#390e5a"></path><path d="M28 381L0 445L95 470Z" fill="#390e5a" stroke="#390e5a"></path><path d="M391 791L450 743L380 740Z" fill="#8f1b42" stroke="#8f1b42"></path><path d="M380 740L450 743L429 699Z" fill="#04135b" stroke="#04135b"></path><path d="M445 170L356 159L382 237Z" fill="#8f1b42" stroke="#8f1b42"></path><path d="M445 170L382 237L456 227Z" fill="#560757" stroke="#560757"></path><path d="M325 749L369 773L380 740Z" fill="#04135b" stroke="#04135b"></path><path d="M265 800L325 749L256 728Z" fill="#a23e33" stroke="#a23e33"></path><path d="M51 274L27 333L103 332Z" fill="#390e5a" stroke="#390e5a"></path><path d="M28 381L0 383L0 445Z" fill="#04135b" stroke="#04135b"></path><path d="M81 696L91 693L72 692Z" fill="#390e5a" stroke="#390e5a"></path><path d="M78 618L91 693L140 634Z" fill="#a67429" stroke="#a67429"></path><path d="M0 627L78 618L34 531Z" fill="#6d0451" stroke="#6d0451"></path><path d="M70 212L63 270L140 247Z" fill="#a23e33" stroke="#a23e33"></path><path d="M140 247L63 270L103 332Z" fill="#560757" stroke="#560757"></path><path d="M51 274L63 270L70 212Z" fill="#6d0451" stroke="#6d0451"></path><path d="M0 445L0 529L34 531Z" fill="#a6502d" stroke="#a6502d"></path><path d="M184 808L165 752L141 800Z" fill="#800b4a" stroke="#800b4a"></path><path d="M134 719L165 752L192 693Z" fill="#a6502d" stroke="#a6502d"></path><path d="M0 374L0 383L28 381Z" fill="#8f1b42" stroke="#8f1b42"></path><path d="M63 270L51 274L103 332Z" fill="#6d0451" stroke="#6d0451"></path><path d="M27 333L0 374L28 381Z" fill="#8f1b42" stroke="#8f1b42"></path><path d="M167 154L140 247L201 207Z" fill="#800b4a" stroke="#800b4a"></path><path d="M0 283L0 374L27 333Z" fill="#9a2c3a" stroke="#9a2c3a"></path><path d="M72 692L91 693L78 618Z" fill="#6d0451" stroke="#6d0451"></path><path d="M91 693L81 696L134 719Z" fill="#8f1b42" stroke="#8f1b42"></path><path d="M517 186L445 170L456 227Z" fill="#6d0451" stroke="#6d0451"></path><path d="M0 674L72 692L78 618Z" fill="#6d0451" stroke="#6d0451"></path><path d="M141 800L165 752L134 719Z" fill="#a76229" stroke="#a76229"></path><path d="M267 125L219 150L269 166Z" fill="#a6502d" stroke="#a6502d"></path><path d="M269 166L219 150L201 207Z" fill="#04135b" stroke="#04135b"></path><path d="M387 848L391 791L369 773Z" fill="#560757" stroke="#560757"></path><path d="M369 773L391 791L380 740Z" fill="#8f1b42" stroke="#8f1b42"></path><path d="M184 808L265 800L256 728Z" fill="#390e5a" stroke="#390e5a"></path><path d="M450 743L540 711L470 652Z" fill="#8f1b42" stroke="#8f1b42"></path><path d="M540 796L540 711L450 743Z" fill="#04135b" stroke="#04135b"></path><path d="M219 150L167 154L201 207Z" fill="#800b4a" stroke="#800b4a"></path><path d="M315 76L267 125L356 159Z" fill="#9a2c3a" stroke="#9a2c3a"></path><path d="M356 159L267 125L269 166Z" fill="#a6502d" stroke="#a6502d"></path><path d="M219 150L161 130L167 154Z" fill="#a6502d" stroke="#a6502d"></path><path d="M540 264L540 208L456 227Z" fill="#9a2c3a" stroke="#9a2c3a"></path><path d="M0 529L0 627L34 531Z" fill="#390e5a" stroke="#390e5a"></path><path d="M101 150L70 212L140 247Z" fill="#9a2c3a" stroke="#9a2c3a"></path><path d="M51 274L0 283L27 333Z" fill="#390e5a" stroke="#390e5a"></path><path d="M540 208L517 186L456 227Z" fill="#a67429" stroke="#a67429"></path><path d="M445 170L395 93L356 159Z" fill="#8f1b42" stroke="#8f1b42"></path><path d="M267 125L223 119L219 150Z" fill="#8f1b42" stroke="#8f1b42"></path><path d="M167 154L101 150L140 247Z" fill="#6d0451" stroke="#6d0451"></path><path d="M0 204L0 283L51 274Z" fill="#a76229" stroke="#a76229"></path><path d="M387 848L413 814L391 791Z" fill="#390e5a" stroke="#390e5a"></path><path d="M391 791L413 814L450 743Z" fill="#a6502d" stroke="#a6502d"></path><path d="M141 800L134 719L68 783Z" fill="#390e5a" stroke="#390e5a"></path><path d="M165 752L184 808L256 728Z" fill="#a23e33" stroke="#a23e33"></path><path d="M265 800L387 848L369 773Z" fill="#a76229" stroke="#a76229"></path><path d="M134 719L81 696L68 783Z" fill="#a76229" stroke="#a76229"></path><path d="M223 119L161 130L219 150Z" fill="#6d0451" stroke="#6d0451"></path><path d="M184 808L203 820L265 800Z" fill="#a67429" stroke="#a67429"></path><path d="M413 814L464 805L450 743Z" fill="#9a2c3a" stroke="#9a2c3a"></path><path d="M0 627L0 674L78 618Z" fill="#800b4a" stroke="#800b4a"></path><path d="M68 783L81 696L72 692Z" fill="#04135b" stroke="#04135b"></path><path d="M184 808L175 878L203 820Z" fill="#a76229" stroke="#a76229"></path><path d="M161 130L120 140L167 154Z" fill="#800b4a" stroke="#800b4a"></path><path d="M70 212L0 204L51 274Z" fill="#390e5a" stroke="#390e5a"></path><path d="M120 140L101 150L167 154Z" fill="#a23e33" stroke="#a23e33"></path><path d="M0 674L0 688L72 692Z" fill="#04135b" stroke="#04135b"></path><path d="M422 88L395 93L445 170Z" fill="#a6502d" stroke="#a6502d"></path><path d="M267 125L248 35L223 119Z" fill="#560757" stroke="#560757"></path><path d="M395 93L388 89L356 159Z" fill="#800b4a" stroke="#800b4a"></path><path d="M223 119L160 78L161 130Z" fill="#390e5a" stroke="#390e5a"></path><path d="M265 858L387 848L265 800Z" fill="#a23e33" stroke="#a23e33"></path><path d="M413 814L473 827L464 805Z" fill="#390e5a" stroke="#390e5a"></path><path d="M388 89L315 76L356 159Z" fill="#560757" stroke="#560757"></path><path d="M161 130L160 78L120 140Z" fill="#a67429" stroke="#a67429"></path><path d="M175 878L265 858L203 820Z" fill="#a67429" stroke="#a67429"></path><path d="M203 820L265 858L265 800Z" fill="#800b4a" stroke="#800b4a"></path><path d="M395 93L422 88L388 89Z" fill="#a76229" stroke="#a76229"></path><path d="M388 89L362 62L315 76Z" fill="#a67429" stroke="#a67429"></path><path d="M501 80L422 88L445 170Z" fill="#6d0451" stroke="#6d0451"></path><path d="M540 112L445 170L517 186Z" fill="#a67429" stroke="#a67429"></path><path d="M398 873L473 827L413 814Z" fill="#04135b" stroke="#04135b"></path><path d="M464 805L540 796L450 743Z" fill="#390e5a" stroke="#390e5a"></path><path d="M0 750L68 783L72 692Z" fill="#390e5a" stroke="#390e5a"></path><path d="M141 800L175 878L184 808Z" fill="#a23e33" stroke="#a23e33"></path><path d="M473 827L540 796L464 805Z" fill="#a6502d" stroke="#a6502d"></path><path d="M0 189L0 204L70 212Z" fill="#a23e33" stroke="#a23e33"></path><path d="M422 88L362 62L388 89Z" fill="#a76229" stroke="#a76229"></path><path d="M68 783L96 817L141 800Z" fill="#390e5a" stroke="#390e5a"></path><path d="M27 148L0 189L70 212Z" fill="#560757" stroke="#560757"></path><path d="M27 148L70 212L101 150Z" fill="#560757" stroke="#560757"></path><path d="M387 848L398 873L413 814Z" fill="#a23e33" stroke="#a23e33"></path><path d="M473 827L540 875L540 796Z" fill="#9a2c3a" stroke="#9a2c3a"></path><path d="M330 920L398 873L387 848Z" fill="#9a2c3a" stroke="#9a2c3a"></path><path d="M248 35L160 78L223 119Z" fill="#9a2c3a" stroke="#9a2c3a"></path><path d="M120 140L64 74L101 150Z" fill="#04135b" stroke="#04135b"></path><path d="M248 35L267 125L315 76Z" fill="#04135b" stroke="#04135b"></path><path d="M0 688L0 750L72 692Z" fill="#560757" stroke="#560757"></path><path d="M68 783L59 866L96 817Z" fill="#800b4a" stroke="#800b4a"></path><path d="M540 208L540 112L517 186Z" fill="#a6502d" stroke="#a6502d"></path><path d="M422 88L394 0L362 62Z" fill="#6d0451" stroke="#6d0451"></path><path d="M64 74L27 148L101 150Z" fill="#a76229" stroke="#a76229"></path><path d="M540 112L501 80L445 170Z" fill="#a6502d" stroke="#a6502d"></path><path d="M122 891L141 800L96 817Z" fill="#8f1b42" stroke="#8f1b42"></path><path d="M122 891L175 878L141 800Z" fill="#a6502d" stroke="#a6502d"></path><path d="M265 858L330 920L387 848Z" fill="#800b4a" stroke="#800b4a"></path><path d="M300 0L315 76L362 62Z" fill="#a6502d" stroke="#a6502d"></path><path d="M300 0L248 35L315 76Z" fill="#a23e33" stroke="#a23e33"></path><path d="M501 80L456 49L422 88Z" fill="#560757" stroke="#560757"></path><path d="M265 915L279 910L265 858Z" fill="#a6502d" stroke="#a6502d"></path><path d="M175 878L265 915L265 858Z" fill="#560757" stroke="#560757"></path><path d="M279 910L330 920L265 858Z" fill="#a6502d" stroke="#a6502d"></path><path d="M322 960L330 920L279 910Z" fill="#560757" stroke="#560757"></path><path d="M540 878L540 875L473 827Z" fill="#a23e33" stroke="#a23e33"></path><path d="M121 22L64 74L160 78Z" fill="#390e5a" stroke="#390e5a"></path><path d="M160 78L64 74L120 140Z" fill="#8f1b42" stroke="#8f1b42"></path><path d="M27 148L0 108L0 189Z" fill="#6d0451" stroke="#6d0451"></path><path d="M59 866L122 891L96 817Z" fill="#560757" stroke="#560757"></path><path d="M175 878L209 960L265 915Z" fill="#560757" stroke="#560757"></path><path d="M365 0L300 0L362 62Z" fill="#800b4a" stroke="#800b4a"></path><path d="M152 0L121 22L160 78Z" fill="#800b4a" stroke="#800b4a"></path><path d="M300 0L272 0L248 35Z" fill="#04135b" stroke="#04135b"></path><path d="M540 878L473 827L458 934Z" fill="#9a2c3a" stroke="#9a2c3a"></path><path d="M394 0L365 0L362 62Z" fill="#6d0451" stroke="#6d0451"></path><path d="M0 870L59 866L68 783Z" fill="#a23e33" stroke="#a23e33"></path><path d="M458 934L473 827L398 873Z" fill="#9a2c3a" stroke="#9a2c3a"></path><path d="M64 74L0 108L27 148Z" fill="#04135b" stroke="#04135b"></path><path d="M472 0L394 0L456 49Z" fill="#a76229" stroke="#a76229"></path><path d="M456 49L394 0L422 88Z" fill="#04135b" stroke="#04135b"></path><path d="M540 112L540 49L501 80Z" fill="#390e5a" stroke="#390e5a"></path><path d="M501 80L540 49L456 49Z" fill="#6d0451" stroke="#6d0451"></path><path d="M152 0L160 78L248 35Z" fill="#9a2c3a" stroke="#9a2c3a"></path><path d="M64 74L0 41L0 108Z" fill="#a67429" stroke="#a67429"></path><path d="M390 960L458 934L398 873Z" fill="#a67429" stroke="#a67429"></path><path d="M381 960L398 873L330 920Z" fill="#a67429" stroke="#a67429"></path><path d="M272 0L152 0L248 35Z" fill="#8f1b42" stroke="#8f1b42"></path><path d="M209 960L322 960L265 915Z" fill="#8f1b42" stroke="#8f1b42"></path><path d="M265 915L322 960L279 910Z" fill="#560757" stroke="#560757"></path><path d="M540 49L472 0L456 49Z" fill="#6d0451" stroke="#6d0451"></path><path d="M322 960L381 960L330 920Z" fill="#6d0451" stroke="#6d0451"></path><path d="M59 866L80 910L122 891Z" fill="#9a2c3a" stroke="#9a2c3a"></path><path d="M160 960L209 960L175 878Z" fill="#a23e33" stroke="#a23e33"></path><path d="M0 927L80 910L59 866Z" fill="#8f1b42" stroke="#8f1b42"></path><path d="M381 960L390 960L398 873Z" fill="#800b4a" stroke="#800b4a"></path><path d="M160 960L175 878L122 891Z" fill="#a23e33" stroke="#a23e33"></path><path d="M0 750L0 870L68 783Z" fill="#560757" stroke="#560757"></path><path d="M152 0L103 0L121 22Z" fill="#8f1b42" stroke="#8f1b42"></path><path d="M121 22L103 0L64 74Z" fill="#a67429" stroke="#a67429"></path><path d="M137 960L122 891L80 910Z" fill="#6d0451" stroke="#6d0451"></path><path d="M137 960L160 960L122 891Z" fill="#8f1b42" stroke="#8f1b42"></path><path d="M540 49L540 0L472 0Z" fill="#a23e33" stroke="#a23e33"></path><path d="M80 960L137 960L80 910Z" fill="#6d0451" stroke="#6d0451"></path><path d="M390 960L492 960L458 934Z" fill="#6d0451" stroke="#6d0451"></path><path d="M458 934L492 960L540 878Z" fill="#a6502d" stroke="#a6502d"></path><path d="M40 0L0 41L64 74Z" fill="#8f1b42" stroke="#8f1b42"></path><path d="M103 0L40 0L64 74Z" fill="#a67429" stroke="#a67429"></path><path d="M0 927L80 960L80 910Z" fill="#a6502d" stroke="#a6502d"></path><path d="M492 960L540 960L540 878Z" fill="#a6502d" stroke="#a6502d"></path><path d="M0 870L0 927L59 866Z" fill="#a6502d" stroke="#a6502d"></path><path d="M40 0L0 0L0 41Z" fill="#390e5a" stroke="#390e5a"></path><path d="M0 927L0 960L80 960Z" fill="#04135b" stroke="#04135b"></path></g></svg>