<svg id="visual" viewBox="0 0 900 600" width="900" height="600" xmlns="http://www.w3.org/2000/svg" xmlns:xlink="http://www.w3.org/1999/xlink" version="1.1"><rect x="0" y="0" width="900" height="600" fill="#FED7AA"></rect><path d="M0 389L21.5 394.2C43 399.3 86 409.7 128.8 423.8C171.7 438 214.3 456 257.2 459.8C300 463.7 343 453.3 385.8 441.8C428.7 430.3 471.3 417.7 514.2 401.8C557 386 600 367 642.8 366.7C685.7 366.3 728.3 384.7 771.2 403.8C814 423 857 443 878.5 453L900 463L900 601L878.5 601C857 601 814 601 771.2 601C728.3 601 685.7 601 642.8 601C600 601 557 601 514.2 601C471.3 601 428.7 601 385.8 601C343 601 300 601 257.2 601C214.3 601 171.7 601 128.8 601C86 601 43 601 21.5 601L0 601Z" fill="#edf2f8" stroke-linecap="round" stroke-linejoin="miter"></path></svg>